<svg width="852" height="214" viewBox="0 0 852 214" fill="none" xmlns="http://www.w3.org/2000/svg">
<path d="M308.344 67.333H283.774V3.10001H264.703V67.333H240.133V3.10001H220.36V85H328.117V3.10001H308.344V67.333Z" fill="black"/>
<path d="M338.068 31.18V45.805H375.859V31.18H338.068ZM348.481 33.52V85H365.446V33.52H348.481Z" fill="black"/>
<path d="M441.029 31.18V85H458.813V31.18H441.029ZM383.348 31.18V85H401.132V31.18H383.348ZM397.271 60.781H410.843C412.871 60.781 414.392 61.288 415.406 62.302C416.498 63.238 417.044 64.486 417.044 66.046C417.044 67.138 416.771 68.113 416.225 68.971C415.757 69.751 415.055 70.336 414.119 70.726C413.261 71.116 412.169 71.311 410.843 71.311H397.271V85H414.002C417.746 85 421.1 84.259 424.064 82.777C427.028 81.217 429.368 78.994 431.084 76.108C432.8 73.222 433.658 69.868 433.658 66.046C433.658 60.274 431.747 56.062 427.925 53.41C424.181 50.68 419.54 49.315 414.002 49.315H397.271V60.781Z" fill="black"/>
<path d="M524.181 85H541.965L525.702 27.085L516.81 48.145L524.181 85ZM500.43 69.673L503.94 88.627L526.872 50.836L525.702 27.085L500.43 69.673ZM503.94 88.627L507.45 69.673L482.529 27.085L481.359 50.836L503.94 88.627ZM466.266 85H484.05L491.421 48.145L482.529 27.085L466.266 85Z" fill="black"/>
<path d="M546.32 58.09C546.32 63.706 547.646 68.62 550.298 72.832C552.95 77.044 556.616 80.32 561.296 82.66C565.976 85 571.241 86.17 577.091 86.17C582.941 86.17 588.167 85 592.769 82.66C597.449 80.32 601.115 77.044 603.767 72.832C606.497 68.62 607.862 63.706 607.862 58.09C607.862 52.396 606.497 47.443 603.767 43.231C601.115 39.019 597.449 35.743 592.769 33.403C588.167 31.063 582.941 29.893 577.091 29.893C571.241 29.893 565.976 31.063 561.296 33.403C556.616 35.743 552.95 39.019 550.298 43.231C547.646 47.443 546.32 52.396 546.32 58.09ZM564.455 58.09C564.455 55.282 565.04 52.864 566.21 50.836C567.38 48.808 568.901 47.248 570.773 46.156C572.645 45.064 574.751 44.518 577.091 44.518C579.353 44.518 581.42 45.064 583.292 46.156C585.242 47.248 586.763 48.808 587.855 50.836C589.025 52.864 589.61 55.282 589.61 58.09C589.61 60.898 589.025 63.316 587.855 65.344C586.763 67.294 585.242 68.815 583.292 69.907C581.42 70.999 579.353 71.545 577.091 71.545C574.751 71.545 572.645 70.999 570.773 69.907C568.901 68.815 567.38 67.294 566.21 65.344C565.04 63.316 564.455 60.898 564.455 58.09Z" fill="black"/>
<path d="M630.428 56.92V63.238H645.989C647.237 63.238 648.29 63.394 649.148 63.706C650.006 64.018 650.669 64.408 651.137 64.876C651.683 65.344 652.073 65.89 652.307 66.514C652.541 67.138 652.658 67.801 652.658 68.503C652.658 69.829 652.151 71.077 651.137 72.247C650.201 73.339 648.485 73.885 645.989 73.885H630.428V85H651.956C658.118 85 662.525 83.596 665.177 80.788C667.907 77.902 669.272 74.431 669.272 70.375C669.272 66.865 668.414 64.135 666.698 62.185C664.982 60.235 662.642 58.87 659.678 58.09C656.714 57.31 653.36 56.92 649.616 56.92H630.428ZM630.428 59.26H648.446C651.8 59.26 654.842 58.792 657.572 57.856C660.38 56.842 662.642 55.36 664.358 53.41C666.074 51.382 666.932 48.847 666.932 45.805C666.932 42.295 666.074 39.487 664.358 37.381C662.642 35.197 660.38 33.637 657.572 32.701C654.842 31.687 651.8 31.18 648.446 31.18H630.428V42.295H644.819C646.613 42.295 647.978 42.802 648.914 43.816C649.85 44.752 650.318 45.922 650.318 47.326C650.318 47.95 650.201 48.574 649.967 49.198C649.733 49.822 649.382 50.368 648.914 50.836C648.446 51.304 647.861 51.694 647.159 52.006C646.535 52.24 645.755 52.357 644.819 52.357H630.428V59.26ZM620.249 31.18V85H637.214V31.18H620.249Z" fill="black"/>
<path d="M272.425 149.39L273.01 130.085L218.722 172.79L218.137 192.095L272.425 149.39ZM235.219 134.18H218.137V192.095L235.219 175.598V134.18ZM273.01 130.085L256.045 146.582V188H273.01V130.085Z" fill="black"/>
<path d="M375.572 134.18H322.22V188H339.302V149.507H358.607V188H375.572V134.18Z" fill="black"/>
<path d="M403.207 171.971C403.207 170.489 403.558 169.241 404.26 168.227C405.04 167.213 406.132 166.433 407.536 165.887C409.018 165.263 410.773 164.951 412.801 164.951C415.843 164.951 418.417 165.341 420.523 166.121C422.707 166.823 424.813 167.915 426.841 169.397V161.09C426.061 160.232 424.735 159.374 422.863 158.516C421.069 157.58 418.924 156.839 416.428 156.293C414.01 155.669 411.436 155.357 408.706 155.357C404.026 155.357 399.931 156.059 396.421 157.463C392.911 158.867 390.181 160.856 388.231 163.43C386.359 166.004 385.423 169.085 385.423 172.673C385.423 176.183 386.242 179.186 387.88 181.682C389.596 184.1 391.936 185.972 394.9 187.298C397.864 188.546 401.218 189.17 404.962 189.17C408.706 189.17 412.06 188.546 415.024 187.298C418.066 185.972 420.445 184.1 422.161 181.682C423.955 179.186 424.852 176.222 424.852 172.79L422.98 166.238C422.98 169.124 422.434 171.386 421.342 173.024C420.25 174.662 418.768 175.832 416.896 176.534C415.102 177.236 413.113 177.587 410.929 177.587C409.525 177.587 408.238 177.392 407.068 177.002C405.898 176.534 404.962 175.91 404.26 175.13C403.558 174.272 403.207 173.219 403.207 171.971ZM396.304 150.794C397.162 150.248 398.449 149.624 400.165 148.922C401.881 148.142 403.87 147.479 406.132 146.933C408.472 146.387 410.929 146.114 413.503 146.114C416.467 146.114 418.768 146.816 420.406 148.22C422.122 149.546 422.98 151.34 422.98 153.602V188H439.945V150.092C439.945 146.348 438.853 143.189 436.669 140.615C434.563 138.041 431.599 136.091 427.777 134.765C424.033 133.361 419.743 132.659 414.907 132.659C410.071 132.659 405.508 133.322 401.218 134.648C397.006 135.974 393.379 137.378 390.337 138.86L396.304 150.794Z" fill="black"/>
<path d="M470.71 213.74V134.18H453.043V213.74H470.71ZM514.702 161.09C514.702 154.772 513.454 149.507 510.958 145.295C508.54 141.005 505.381 137.768 501.481 135.584C497.659 133.4 493.525 132.308 489.079 132.308C484.399 132.308 480.343 133.517 476.911 135.935C473.557 138.275 470.983 141.59 469.189 145.88C467.395 150.17 466.498 155.24 466.498 161.09C466.498 166.862 467.395 171.932 469.189 176.3C470.983 180.59 473.557 183.944 476.911 186.362C480.343 188.702 484.399 189.872 489.079 189.872C493.525 189.872 497.659 188.78 501.481 186.596C505.381 184.412 508.54 181.175 510.958 176.885C513.454 172.595 514.702 167.33 514.702 161.09ZM496.099 161.09C496.099 163.898 495.514 166.277 494.344 168.227C493.174 170.177 491.614 171.659 489.664 172.673C487.714 173.687 485.569 174.194 483.229 174.194C481.201 174.194 479.212 173.726 477.262 172.79C475.39 171.776 473.83 170.294 472.582 168.344C471.334 166.394 470.71 163.976 470.71 161.09C470.71 158.204 471.334 155.786 472.582 153.836C473.83 151.886 475.39 150.443 477.262 149.507C479.212 148.493 481.201 147.986 483.229 147.986C485.569 147.986 487.714 148.493 489.664 149.507C491.614 150.521 493.174 152.003 494.344 153.953C495.514 155.903 496.099 158.282 496.099 161.09Z" fill="black"/>
<path d="M519.053 134.18V148.805H556.844V134.18H519.053ZM529.466 136.52V188H546.431V136.52H529.466Z" fill="black"/>
<path d="M569.832 166.238H613.356V153.017H569.832V166.238ZM605.4 134.18V188H622.365V134.18H605.4ZM564.333 134.18V188H581.415V134.18H564.333Z" fill="black"/>
<path d="M643.101 164.834H692.241C692.397 163.898 692.475 163.04 692.475 162.26C692.475 161.402 692.475 160.739 692.475 160.271C692.475 154.577 691.344 149.702 689.082 145.646C686.898 141.59 683.622 138.47 679.254 136.286C674.964 134.102 669.699 133.01 663.459 133.01C657.609 133.01 652.578 133.946 648.366 135.818C644.232 137.69 640.917 140.303 638.421 143.657C636.003 147.011 634.404 150.911 633.624 155.357C633.468 156.293 633.351 157.229 633.273 158.165C633.195 159.101 633.156 160.076 633.156 161.09C633.156 166.472 634.326 171.308 636.666 175.598C639.084 179.81 642.555 183.125 647.079 185.543C651.681 187.961 657.219 189.17 663.693 189.17C668.919 189.17 673.326 188.546 676.914 187.298C680.58 185.972 683.661 184.139 686.157 181.799C688.653 179.381 690.798 176.534 692.592 173.258L676.797 169.397C675.939 170.879 674.886 172.166 673.638 173.258C672.39 174.272 670.908 175.052 669.192 175.598C667.554 176.144 665.643 176.417 663.459 176.417C661.119 176.417 659.013 175.91 657.141 174.896C655.269 173.882 653.748 172.244 652.578 169.982C651.486 167.72 650.94 164.756 650.94 161.09L651.174 158.282C651.174 155.396 651.681 152.978 652.695 151.028C653.709 149 655.074 147.479 656.79 146.465C658.584 145.373 660.69 144.827 663.108 144.827C665.214 144.827 666.969 145.256 668.373 146.114C669.855 146.894 670.986 148.025 671.766 149.507C672.624 150.989 673.209 152.822 673.521 155.006H643.101V164.834ZM667.437 116.396C667.437 119.126 668.412 121.388 670.362 123.182C672.39 124.976 674.847 125.873 677.733 125.873C680.541 125.873 682.959 124.976 684.987 123.182C687.015 121.388 688.029 119.126 688.029 116.396C688.029 113.588 687.015 111.287 684.987 109.493C682.959 107.699 680.541 106.802 677.733 106.802C674.847 106.802 672.39 107.699 670.362 109.493C668.412 111.287 667.437 113.588 667.437 116.396ZM638.889 116.396C638.889 119.126 639.903 121.388 641.931 123.182C643.959 124.976 646.377 125.873 649.185 125.873C652.071 125.873 654.489 124.976 656.439 123.182C658.467 121.388 659.481 119.126 659.481 116.396C659.481 113.588 658.467 111.287 656.439 109.493C654.489 107.699 652.071 106.802 649.185 106.802C646.377 106.802 643.959 107.699 641.931 109.493C639.903 111.287 638.889 113.588 638.889 116.396Z" fill="black"/>
<path d="M721.163 213.74V134.18H703.496V213.74H721.163ZM765.155 161.09C765.155 154.772 763.907 149.507 761.411 145.295C758.993 141.005 755.834 137.768 751.934 135.584C748.112 133.4 743.978 132.308 739.532 132.308C734.852 132.308 730.796 133.517 727.364 135.935C724.01 138.275 721.436 141.59 719.642 145.88C717.848 150.17 716.951 155.24 716.951 161.09C716.951 166.862 717.848 171.932 719.642 176.3C721.436 180.59 724.01 183.944 727.364 186.362C730.796 188.702 734.852 189.872 739.532 189.872C743.978 189.872 748.112 188.78 751.934 186.596C755.834 184.412 758.993 181.175 761.411 176.885C763.907 172.595 765.155 167.33 765.155 161.09ZM746.552 161.09C746.552 163.898 745.967 166.277 744.797 168.227C743.627 170.177 742.067 171.659 740.117 172.673C738.167 173.687 736.022 174.194 733.682 174.194C731.654 174.194 729.665 173.726 727.715 172.79C725.843 171.776 724.283 170.294 723.035 168.344C721.787 166.394 721.163 163.976 721.163 161.09C721.163 158.204 721.787 155.786 723.035 153.836C724.283 151.886 725.843 150.443 727.715 149.507C729.665 148.493 731.654 147.986 733.682 147.986C736.022 147.986 738.167 148.493 740.117 149.507C742.067 150.521 743.627 152.003 744.797 153.953C745.967 155.903 746.552 158.282 746.552 161.09Z" fill="black"/>
<path d="M833.505 134.18V188H851.289V134.18H833.505ZM775.824 134.18V188H793.608V134.18H775.824ZM789.747 163.781H803.319C805.347 163.781 806.868 164.288 807.882 165.302C808.974 166.238 809.52 167.486 809.52 169.046C809.52 170.138 809.247 171.113 808.701 171.971C808.233 172.751 807.531 173.336 806.595 173.726C805.737 174.116 804.645 174.311 803.319 174.311H789.747V188H806.478C810.222 188 813.576 187.259 816.54 185.777C819.504 184.217 821.844 181.994 823.56 179.108C825.276 176.222 826.134 172.868 826.134 169.046C826.134 163.274 824.223 159.062 820.401 156.41C816.657 153.68 812.016 152.315 806.478 152.315H789.747V163.781Z" fill="black"/>
<path opacity="0.3" d="M34.9199 31.1399L68.7599 31.1399L102.24 31.1399L136.08 31.1399L136.08 47.9999L171 47.9999L171 -6.10352e-05L-0.000117874 -7.59845e-05L-0.00012207 47.9999L34.9199 47.9999L34.9199 31.1399Z" fill="black"/>
<path d="M136.08 157.86H102.24V63.0001H68.76V157.86H34.92V63.0001H0V189H171V63.0001H136.08V157.86Z" fill="#0094E8"/>
</svg>
