<?xml version="1.0" standalone="no"?>
<!DOCTYPE svg PUBLIC "-//W3C//DTD SVG 20010904//EN"
 "http://www.w3.org/TR/2001/REC-SVG-20010904/DTD/svg10.dtd">
<svg version="1.0" xmlns="http://www.w3.org/2000/svg"
 width="740.000000pt" height="740.000000pt" viewBox="0 0 740.000000 740.000000"
 preserveAspectRatio="xMidYMid meet">
<metadata>
Created by potrace 1.14, written by Peter Selinger 2001-2017
</metadata>
<g transform="translate(0.000000,740.000000) scale(0.100000,-0.100000)"
fill="#000000" stroke="none">
<path d="M300 6440 l0 -960 695 0 695 0 0 340 0 340 2030 0 2030 0 0 -340 0
-340 675 0 675 0 0 960 0 960 -3400 0 -3400 0 0 -960z"/>
<path d="M300 2440 l0 -2440 3400 0 3400 0 0 2440 0 2440 -680 0 -680 0 0
-1895 0 -1895 -675 0 -675 0 0 1895 0 1895 -670 0 -670 0 0 -1895 0 -1895
-675 0 -675 0 0 1895 0 1895 -700 0 -700 0 0 -2440z"/>
</g>
</svg>
